<svg aria-hidden="true" style="position:absolute;width:0;height:0;overflow:hidden" xmlns="http://www.w3.org/2000/svg">
  <defs>
    <symbol id="icon-play" viewBox="0 0 32 32">
      <path d="m27.457 21.815-4.378 7.073a3.504 3.504 0 0 1-5.457.633 2.765 2.765 0 0 1-.724-2.613l.692-2.767a1.403 1.403 0 0 0-.367-1.327l-8.036-8.036a1.402 1.402 0 0 0-1.327-.367l-2.767.692a2.766 2.766 0 0 1-2.612-.723 3.505 3.505 0 0 1 .633-5.458l7.073-4.378c2.603-1.612 5.494-.763 7.078.821l9.373 9.373c2.165 2.165 2.001 5.173.821 7.078zm-13.664-9.998.673.673a.832.832 0 1 0 1.177-1.178l-.673-.673.673-.673a.834.834 0 0 0-1.177-1.178l-.673.673-.673-.673a.834.834 0 0 0-1.178 1.177l.673.673-.673.673a.832.832 0 1 0 1.178 1.177l.673-.673zm5.718 5.718a.832.832 0 1 1 1.177-1.179.832.832 0 0 1-1.177 1.18zm0 1.345a.834.834 0 0 0 1.177 1.178.834.834 0 0 0-1.178-1.178zm2.522-1.345a.834.834 0 1 1 1.18-1.176.834.834 0 0 1-1.18 1.175zm0 1.345a.834.834 0 0 0 1.177 1.178.834.834 0 0 0-1.178-1.178z"/>
    </symbol>
    <symbol id="icon-work" viewBox="0 0 32 32">
      <path d="m29.095 23.233-13.281-6.641c-.093-.042-.169-.102-.237-.169s-.127-.144-.169-.237L8.767 2.905l1.94-1.94a3.294 3.294 0 0 1 4.659 0l4.447 4.447.847-.847a2.399 2.399 0 0 1 3.388 0l3.388 3.388a2.399 2.399 0 0 1 0 3.388l-.847.847 4.447 4.447a3.294 3.294 0 0 1 0 4.659l-1.94 1.94zM21.506 7.106l3.388 3.388.847-.847-3.388-3.388-.847.847zm-6.497 11.088a2.618 2.618 0 0 1-1.237-1.271L7.428 4.243.965 10.706a3.294 3.294 0 0 0 0 4.659l15.67 15.67a3.294 3.294 0 0 0 4.659 0l6.463-6.463-12.748-6.378z"/>
    </symbol>
    <symbol id="icon-study" viewBox="0 0 32 32">
      <path d="m31.232 17.122.543.543c.3.3.3.785 0 1.085L18.75 31.775c-.3.3-.785.3-1.085 0l-6.099-6.099a2.306 2.306 0 0 1-2.621-.45l-2.171-2.171a2.306 2.306 0 0 1-.45-2.621L.225 14.335c-.3-.3-.3-.785 0-1.085L13.25.225c.3-.3.785-.3 1.085 0l.543.543L3.481 12.165c-.898.898-.862 2.395.036 3.292l4.977 4.977c-.408.856-.258 1.913.45 2.621s1.765.858 2.621.45l4.977 4.977c.898.898 2.395.934 3.292.036l11.397-11.397zm-7.813-9.627L10.97 19.944c.143-.627.485-3.062-2.026-5.572-.3-.3-.3-.785 0-1.085L19.798 2.433c.3-.3.785-.3 1.085 0 1.842 1.842 2.411 3.684 2.535 5.063zM12.201 21.97l5.427 5.427c.3.3.785.3 1.085 0l11.94-11.94c.3-.3.3-.785 0-1.085l-4.342-4.342a3.803 3.803 0 0 0-2.185-1.072L11.115 21.969a.768.768 0 0 1 1.085 0zm4.342-20.623c.3-.3.785-.3 1.085 0l.543.543L7.859 12.202a2.304 2.304 0 0 0 0 3.256c1.643 1.643 1.723 3.157 1.659 3.83l-4.915-4.915c-.3-.3-.3-.785 0-1.085l11.94-11.94z"/>
    </symbol>
    <symbol id="icon-exercise" viewBox="0 0 47 32">
      <path d="M45.54 19.09v.154c0 .69-.269 1.339-.756 1.827s-1.137.757-1.827.757l-9.346-.001c-1.391.001-2.603-1.212-2.603-2.603l-.001-4.981-7.14-.005.006 8.989a.766.766 0 0 1-.333.633l-10.724 7.354a3.067 3.067 0 0 1-2.623.319 3.04 3.04 0 0 1-1.181-.733 3.107 3.107 0 0 1-.707-1.097c-.519-1.359.044-2.923 1.337-3.719l7.291-5.318.149-6.684-8.033.262a.763.763 0 0 1-.567-.224L.898 6.436a3.072 3.072 0 0 1-.896-2.247A3.036 3.036 0 0 1 1.018 1.99c1.21-1.09 3.102-1 4.306.205l5.082 5.082 17.448-.969-1.264-1.264-7.267.206a2.628 2.628 0 0 1-1.952-.758l-.009-.009a2.612 2.612 0 0 1-.767-1.96c.048-1.391 1.28-2.522 2.745-2.522l9.746.252a.769.769 0 0 1 .522.225l5.898 5.898c.525.525.83 1.222.86 1.963l.304 7.626a.552.552 0 0 0 .555.53l5.686-.03a2.63 2.63 0 0 1 2.629 2.625zm.317-5.613c-1.792 1.792-4.708 1.792-6.5 0s-1.792-4.708 0-6.5c1.792-1.792 4.708-1.792 6.5 0s1.792 4.708 0 6.5z"/>
    </symbol>
    <symbol id="icon-social" viewBox="0 0 24 32">
      <path d="M20.536 14.792c-1.97 1.97-4.632 1.659-6.162.129l-3.36-3.36-4.312.249c-.609.036-.936-.702-.507-1.13L8.2 8.675a4.274 4.274 0 0 1 .432-5.529c1.961-1.961 4.622-1.669 6.162-.129l5.741 5.741a4.272 4.272 0 0 1 0 6.034zm-2.513-2.384a.821.821 0 1 0-1.161-.001.822.822 0 0 0 1.162 0zm-6.878-5.717a.82.82 0 1 1 1.161-1.163.82.82 0 0 1-1.162 1.164zm4.02 2.858a.82.82 0 1 0-1.159-1.161.82.82 0 0 0 1.159 1.161zM11.617 14.642l5.741 5.741c1.559 1.559 1.81 4.224-.129 6.162a4.275 4.275 0 0 1-5.529.433l-2.005 2.005c-.431.431-1.166.097-1.131-.507l.249-4.312-3.36-3.36c-1.555-1.555-1.814-4.219.129-6.162a4.27 4.27 0 0 1 6.034 0zm-3.65 2.513a.821.821 0 1 0 1.161 1.16.821.821 0 0 0-1.161-1.159zm2.858 4.02a.821.821 0 1 1 1.161-.001.822.822 0 0 1-1.162 0zm2.859 1.696a.821.821 0 1 0 1.161 1.16.821.821 0 0 0-1.161-1.159z"/>
    </symbol>
    <symbol id="icon-health" viewBox="0 0 32 32">
      <path d="m.825 24.324-.009-.139c-.637-9.624-1.057-15.983 3.8-20.84 4.018-4.018 10.321-4.011 14.348.016 1.81 1.81 2.919 4.279 3.117 6.835 2.556.198 5.024 1.307 6.835 3.117 4.027 4.027 4.034 10.33.016 14.348-2.221 2.221-5.259 3.45-9.562 3.866-3.684.357-8.054.129-13.827-.231l-.018-.001-2.884-.214a1.566 1.566 0 0 1-1.445-1.445l-.214-2.884-.001-.016v-.002c-.052-.827-.105-1.63-.156-2.41zm12.702-8.522-2.948-2.948-2.941 2.941 2.948 2.948-2.941 2.941 2.948 2.948 2.941-2.941 2.948 2.948 2.941-2.941-2.948-2.948 2.942-2.942-2.948-2.948-2.942 2.942z"/>
    </symbol>
    <symbol id="icon-kebab-btn" viewBox="0 0 102 32">
      <path d="M25.6 16c0 8.837-5.731 16-12.8 16S0 24.837 0 16 5.731 0 12.8 0s12.8 7.163 12.8 16zM64 16c0 8.837-5.731 16-12.8 16s-12.8-7.163-12.8-16S44.131 0 51.2 0 64 7.163 64 16zm25.6 16c7.069 0 12.8-7.163 12.8-16S96.669 0 89.6 0c-7.069 0-12.8 7.163-12.8 16s5.731 16 12.8 16z"/>
    </symbol>
  </defs>
</svg>
