<svg aria-hidden="true" style="position:absolute;width:0;height:0;overflow:hidden" xmlns="http://www.w3.org/2000/svg">
  <defs>
    <symbol id="icon-instagram_icon" viewBox="0 0 32 32">
      <path d="M15.915 9.425c-3.951 0-7.224 3.217-7.224 7.224s3.217 7.224 7.224 7.224 7.224-3.273 7.224-7.224-3.273-7.224-7.224-7.224zm0 11.852c-2.54 0-4.628-2.088-4.628-4.628s2.088-4.628 4.628-4.628 4.628 2.088 4.628 4.628-2.088 4.628-4.628 4.628zM25.058 9.256a1.637 1.637 0 1 1-3.274 0 1.637 1.637 0 0 1 3.274 0z"/>
      <path d="M27.654 5.023c-1.467-1.524-3.556-2.314-5.926-2.314H10.102c-4.91 0-8.183 3.273-8.183 8.183v11.57c0 2.427.79 4.515 2.37 6.039 1.524 1.467 3.556 2.201 5.869 2.201h11.513c2.427 0 4.459-.79 5.926-2.201 1.524-1.467 2.314-3.556 2.314-5.982V10.893c0-2.37-.79-4.402-2.258-5.87zm-.225 17.496c0 1.75-.621 3.16-1.637 4.12s-2.427 1.467-4.12 1.467H10.159c-1.693 0-3.104-.508-4.12-1.467-1.016-1.016-1.524-2.427-1.524-4.176v-11.57c0-1.693.508-3.104 1.524-4.12.959-.959 2.427-1.467 4.12-1.467h11.626c1.693 0 3.104.508 4.12 1.524.959 1.016 1.524 2.427 1.524 4.064V22.52z"/>
    </symbol>
    <symbol id="icon-card" viewBox="0 0 32 32">
      <path d="M1.333 1.333a1.333 1.333 0 0 0 0 2.666h2.372a.924.924 0 0 1 .878.633l4.396 13.19a3.25 3.25 0 0 1 .07 1.815l-.362 1.451C8.156 23.213 9.81 25.333 12 25.333h16a1.333 1.333 0 0 0 0-2.666H12c-.519 0-.852-.426-.727-.93l.273-1.09a.852.852 0 0 1 .829-.647h14.292c.574 0 1.084-.367 1.266-.911l3.555-10.667a1.333 1.333 0 0 0-1.266-1.755H8.74a.924.924 0 0 1-.878-.633L6.599 2.245a1.332 1.332 0 0 0-1.266-.911h-4zm9.334 25.334a2.667 2.667 0 1 0 0 5.334 2.667 2.667 0 0 0 0-5.334zm16 0a2.667 2.667 0 1 0 0 5.334 2.667 2.667 0 0 0 0-5.334z"/>
    </symbol>
    <symbol id="icon-image" viewBox="0 0 32 32">
      <path d="M3.918 8.082a4.246 4.246 0 0 1 4.245-4.245h10.449a.98.98 0 0 0 0-1.96H8.163a6.204 6.204 0 0 0-6.204 6.204v15.673a6.204 6.204 0 0 0 6.204 6.204h15.673a6.204 6.204 0 0 0 6.204-6.204V13.305a.98.98 0 0 0-1.96 0v4.583a2.474 2.474 0 0 0-.184-.134l-3.11-2.073a5.223 5.223 0 0 0-6.592.653l-4.392 4.392a5.225 5.225 0 0 1-6.592.653l-3.293-2.196V8.081zm22.204-5.224a.98.98 0 0 0-1.96 0v2.939h-2.939a.98.98 0 0 0 0 1.96h2.939v2.939a.98.98 0 0 0 1.96 0V7.757h2.939a.98.98 0 0 0 0-1.96h-2.939V2.858zM11.429 14.613a3.265 3.265 0 1 0 0-6.53 3.265 3.265 0 0 0 0 6.53z"/>
    </symbol>
    <symbol id="icon-sketch" viewBox="0 0 32 32">
      <path d="m15.495 16.809 1.78-5.116c-1.976-2.641-3.707-6.579-3.707-10.531V.246H1.07v31.347h29.859V17.607h-.916c-2.954 0-6.181-1.005-8.935-2.74l-5.583 1.942zM9.536 10.02c.37.857.8 1.699 1.278 2.503l-1.576.936a23.936 23.936 0 0 1-1.384-2.712l1.682-.727zM7.173 8.982a23.918 23.918 0 0 1-.794-2.942l1.796-.363c.185.917.432 1.83.733 2.715l-1.735.59zM5.907 1.293H7.74c0 .889.053 1.783.159 2.66l-1.82.219a24.218 24.218 0 0 1-.172-2.878zm.722 20.326a10.21 10.21 0 0 1 2.299 1.616l-1.25 1.34a8.352 8.352 0 0 0-1.885-1.326l.837-1.63zm2.132 4.186 1.487-1.071c.551.765.993 1.601 1.312 2.485l-1.724.623a8.314 8.314 0 0 0-1.075-2.037zm1.507-10.759 1.497-1.058c.539.763 1.133 1.5 1.766 2.189l-1.351 1.239a24.027 24.027 0 0 1-1.912-2.371zm11.652 8.785.602-1.731c.883.307 1.795.56 2.712.752l-.375 1.794a23.862 23.862 0 0 1-2.939-.815zm7.845 1.32c-1.016 0-2.038-.065-3.039-.192l.231-1.818a22.25 22.25 0 0 0 2.808.177v1.833zm-11.366-4.988c.802.484 1.642.92 2.497 1.297l-.739 1.677a23.822 23.822 0 0 1-2.705-1.405l.947-1.569zm-1.46-.962-1.068 1.489a23.945 23.945 0 0 1-2.357-1.93l1.249-1.342A22.223 22.223 0 0 0 16.94 19.2zm-14.952 1.3c.945 0 1.881.13 2.783.385l-.5 1.763a8.386 8.386 0 0 0-2.282-.316V20.5zm8.342 10.175c0-.418-.031-.838-.093-1.248l1.813-.272c.075.5.113 1.011.113 1.52h-1.833zM29.981 4.28l.414-.414c.261-.261.405-.609.405-.979s-.144-.717-.405-.979c-.261-.261-.609-.405-.979-.405s-.717.144-.979.405l-.449.449L29.98 4.28z"/>
      <path d="m28.685 5.576-1.992-1.923-7.178 7.178-1.044 3.002 3.002-1.044 7.212-7.212z"/>
    </symbol>
    <symbol id="icon-quality" viewBox="0 0 33 32">
      <path d="m29.947 27.189-4.189-7.199c.725-.221 1.497-.416 1.818-.97.535-.923-.417-2.437-.167-3.427.257-1.018 1.777-1.899 1.777-2.934 0-1.008-1.571-2.186-1.829-3.199-.252-.989.697-2.505.161-3.427s-2.323-.846-3.059-1.554c-.757-.728-.754-2.51-1.667-2.998-.916-.49-2.406.5-3.424.266-1.006-.232-1.905-1.746-2.956-1.746-1.066 0-2.762 1.718-3.028 1.78-1.017.236-2.508-.751-3.424-.259-.912.49-.906 2.272-1.662 3.001-.734.709-2.521.637-3.056 1.56s.417 2.437.167 3.427c-.251.992-1.823 1.998-1.823 3.146 0 1.035 1.524 1.914 1.783 2.931.252.989-.697 2.505-.161 3.427.292.502.955.708 1.616.906.077.023.223.109.124.254l-4.096 7.07c-.29.5-.054.929.523.953l2.826.118c.577.024 1.302.444 1.61.933l1.508 2.393c.308.489.797.48 1.087-.02l4.222-7.287c.085-.099.17-.079.21-.044.462.393 1.105.785 1.643.785.527 0 1.015-.369 1.497-.781.039-.033.135-.102.205.04l4.216 7.248c.291.499.78.508 1.087.018l1.504-2.396c.307-.489 1.031-.91 1.608-.936l2.826-.123c.577-.025.812-.455.521-.954zm-8.863-6.553c-3.125 1.818-6.876 1.623-9.741-.184C7.145 17.763 5.764 12.2 8.287 7.845c2.552-4.406 8.163-5.961 12.609-3.539l.07.039.099.055a9.32 9.32 0 0 1 3.412 3.402c2.603 4.474 1.081 10.231-3.393 12.834z"/>
      <path d="m20.369 5.716-.039-.022a7.903 7.903 0 0 0-7.938.001c-3.765 2.19-5.046 7.034-2.855 10.799a7.84 7.84 0 0 0 2.641 2.724c.09.057.181.113.274.167 3.769 2.183 8.61.894 10.794-2.875s.894-8.61-2.875-10.794zm.943 6.161-1.32 1.286c-.409.398-.664 1.185-.568 1.747l.311 1.816c.097.563-.238.805-.743.54l-1.631-.858c-.505-.266-1.332-.266-1.837 0l-1.631.858c-.505.266-.84.023-.743-.54l.312-1.816c.096-.563-.159-1.349-.568-1.747l-1.319-1.286c-.409-.398-.281-.791.284-.874l1.823-.265c.565-.082 1.234-.568 1.486-1.08l.816-1.652c.253-.512.666-.512.918 0l.816 1.652c.253.512.921.998 1.486 1.08l1.823.265c.565.082.692.475.284.874z"/>
    </symbol>
    <symbol id="icon-heard" viewBox="0 0 33 32">
      <path d="M23.675 1.313A8.828 8.828 0 0 0 16.5 4.984a8.826 8.826 0 0 0-7.175-3.671C4.46 1.313.5 5.265.5 10.122c0 8.641 13.193 18.945 14.379 19.855.424.427 1.008.669 1.621.669s1.197-.243 1.621-.669c1.185-.91 14.379-11.213 14.379-19.855 0-4.857-3.96-8.809-8.825-8.809z"/>
    </symbol>
    <symbol id="icon-mashine" viewBox="0 0 33 32">
      <path d="M29.066 14.666a.667.667 0 0 0 .667-.667V7.332a.667.667 0 0 0-1.334 0v6.667c0 .368.299.667.667.667zM4.399 17.212v3.455a.667.667 0 0 0 1.334 0v-3.456a1.995 1.995 0 0 0 1.333-1.877V6.001c0-1.103-.897-2-2-2s-2 .897-2 2v9.333c0 .868.559 1.601 1.333 1.879z"/>
      <path d="M30.399 22.667h-1.333a.667.667 0 0 0 0-1.334h-.953c-.459-.923-1.047-3.46-1.047-4.667 0-.469.223-1.027.48-1.671.38-.953.853-2.14.853-3.663 0-2.637-1.936-4.303-4-4.604V4.665a.667.667 0 0 0-1.334 0v2.028c-1.265.08-3.428.339-5.711.612-2.848.34-5.792.693-6.956.693a4.04 4.04 0 0 1-1.148-.177.669.669 0 0 0-.852.641v4.683c0 .211.099.408.268.533a.673.673 0 0 0 .588.105c.908-.268 2.027-.411 3.235-.411 3.184 0 6.231.948 7.408 2.307.421.487.588.996.508 1.556-.119.833-.583 2.855-2.24 4.095h-1.099a.667.667 0 0 0 0 1.334H2.399c-1.103.001-2 .897-2 2.001v1.333c0 1.101.897 2 2 2h28c1.103 0 2-.897 2-2v-1.333a2.004 2.004 0 0 0-2.001-2z"/>
    </symbol>
    <symbol id="icon-gift" viewBox="0 0 33 32">
      <path d="M2.4 16.981v12c0 1.104.898 2 2 2h10v-14h-12zM30.4 8.981h-6.328c.454-.31.844-.618 1.116-.894a4.18 4.18 0 0 0 0-5.884c-1.568-1.58-4.3-1.576-5.866 0-.868.87-3.168 4.412-2.85 6.778h-.144c.316-2.366-1.984-5.908-2.85-6.778-1.568-1.576-4.3-1.576-5.866 0a4.186 4.186 0 0 0-.002 5.884c.274.276.664.584 1.118.894H2.4c-1.102 0-2 .898-2 2v3a1 1 0 0 0 1 1h13v-4h4v4h13a1 1 0 0 0 1-1v-3c0-1.102-.896-2-2-2zm-16.118-.066s-.084.066-.37.066c-1.382 0-4.02-1.436-4.882-2.304a2.181 2.181 0 0 1 0-3.064 2.124 2.124 0 0 1 1.516-.632c.57 0 1.108.224 1.514.632 1.348 1.356 2.688 4.82 2.222 5.302zm4.604.066c-.284 0-.368-.064-.368-.066-.466-.482.874-3.946 2.222-5.302.806-.814 2.216-.818 3.03 0 .84.844.84 2.22 0 3.064-.862.868-3.5 2.304-4.884 2.304zM18.4 16.981v14h10a2 2 0 0 0 2-2v-12h-12z"/>
    </symbol>
    <symbol id="icon-fire" viewBox="0 0 32 32">
      <path fill="#f3705a" style="fill:var(--color1, #f3705a)" d="M8.786 29.108c-1.469-1.669-2.938-3.405-3.872-5.475-.935-2.203-1.202-4.74-.734-7.144s1.535-4.673 3.071-6.609c-.133 1.669.467 3.405 1.602 4.673-.668-3.205.401-6.676 2.537-9.213s5.074-4.206 8.145-5.341c-1.536 1.602-1.736 4.139-1.135 6.276s1.869 4.006 3.004 5.942 2.203 3.939 2.27 6.142c.601-1.135 1.268-2.27 1.669-3.538s.601-2.604.267-3.872c1.202 1.469 1.869 2.938 2.203 4.807s.267 3.805.067 5.675c-.267 2.07-.801 4.206-1.936 5.942-1.335 2.07-3.472 3.538-5.808 4.339-4.139.735-8.212.134-11.35-2.604z"/>
      <path fill="#ffd15c" style="fill:var(--color2, #ffd15c)" d="M13.86 31.578c5.474 2.136 10.882-4.34 7.878-9.347 0-.067-.067-.067-.067-.133.267 2.737-.4 4.74-1.669 5.875.668-1.602.2-3.472-.601-5.074-.801-1.536-1.936-2.937-2.804-4.406-.868-1.536-1.535-3.271-1.135-5.007-1.602 1.202-2.737 3.004-3.205 4.94s-.2 4.073.668 5.875c-1.001-.734-1.736-1.936-1.803-3.205-1.068 1.268-1.736 2.937-1.669 4.607 0 2.604 2.07 4.94 4.406 5.875z"/>
    </symbol>
    <symbol id="icon-meteor" viewBox="0 0 32 32">
      <path d="M12.667 29.333a9.94 9.94 0 0 0 7.084-2.943l9.205-9.461a1.33 1.33 0 0 0 .272-1.448A1.338 1.338 0 0 0 28 14.667h-4.401l5.567-10.019a1.334 1.334 0 0 0-1.812-1.813l-9.48 5.267.768-3.839a1.329 1.329 0 0 0-.632-1.41 1.336 1.336 0 0 0-1.54.134L5.595 12.263c-3.899 3.899-3.899 10.243 0 14.141a9.938 9.938 0 0 0 7.072 2.929zM7.403 14.22l7.869-6.708-1.144 5.72 10.44-5.8-5.5 9.901h5.775l-6.991 7.185c-1.385 1.385-3.227 2.148-5.185 2.148s-3.801-.763-5.187-2.148c-2.857-2.859-2.857-7.512-.077-10.299z"/>
      <path d="M12.667 24a4.654 4.654 0 0 0 4.193-6.716 4.662 4.662 0 0 0-2.214-2.163c.007.071.021.14.021.212a2 2 0 0 1-4 0c0-.072.015-.141.021-.212a4.653 4.653 0 0 0-2.583 5.236A4.653 4.653 0 0 0 12.667 24z"/>
    </symbol>
    <symbol id="icon-viber" viewBox="0 0 32 32">
      <path d="M14.933.97h.683c.437.015.874.027 1.31.036 2.245.047 4.498.362 6.63 1.083.987.334 1.94.768 2.812 1.341.654.43 1.219.954 1.697 1.574.895 1.161 1.444 2.549 1.79 3.964.193.789.333 1.588.421 2.396.025.234.049.469.072.704v4.576a50.454 50.454 0 0 1-.229 2.33c-.184 1.513-.602 2.999-1.348 4.335-1.044 1.869-2.761 3.204-4.791 3.878-.379.126-.78.241-1.201.344-.224.055-.462.137-.679.19a20.59 20.59 0 0 1-1.801.347c-2.148.32-4.306.413-6.474.278l-.594-.038a.029.029 0 0 0-.021.009 47.79 47.79 0 0 1-1.827 2.069c-.362.388-.693.784-1.083 1.166-.2.195-.412.345-.638.449h-.879c-.543-.239-.709-.916-.709-1.451v-3.171c0-.009-.004-.014-.012-.016-1.975-.567-3.682-1.626-4.901-3.3-1.586-2.177-2.089-4.958-2.181-7.589l-.022-.591v-1.571c.009-.366.019-.733.03-1.099.094-3.134.674-6.46 2.901-8.846.12-.129.248-.25.382-.364.809-.687 1.741-1.213 2.721-1.614C9.496 1.366 12.25 1.035 14.933.971zM9.002 25.32l.008.005c.002.002.003.006.003.009l-.04 4.627c-.002.24-.001.48.004.719.002.12.03.314.147.38.141.079.389-.072.488-.172.176-.177.347-.359.514-.545 1.253-1.393 2.457-2.832 3.654-4.273a.023.023 0 0 1 .021-.009c2.107.116 4.202.002 6.284-.341a14.954 14.954 0 0 0 1.512-.311c.335-.093.713-.17 1.005-.243 1.638-.407 3.035-1.31 3.985-2.704.802-1.177 1.221-2.606 1.398-4.033.266-2.148.35-4.305.134-6.438a15.464 15.464 0 0 0-.666-3.265c-.436-1.326-1.193-2.76-2.401-3.54-1.043-.673-2.287-1.12-3.49-1.415-1.582-.388-3.216-.571-4.844-.604a57.206 57.206 0 0 1-.851-.026 22.75 22.75 0 0 0-3.998.228c-.869.123-1.724.311-2.564.564-1.18.355-2.34.884-3.293 1.678a3.757 3.757 0 0 0-.355.337c-1.231 1.329-1.854 3.039-2.138 4.807a19.025 19.025 0 0 0-.221 2.014 48.692 48.692 0 0 0-.059 2.865c.013 2.164.256 4.483 1.359 6.397.974 1.69 2.541 2.782 4.405 3.289z"/>
      <path d="M15.537 6.56c2.16.009 4.161.757 5.708 2.275a7.499 7.499 0 0 1 2.019 3.458c.248.921.362 1.827.343 2.717-.011.5-.778.504-.779-.019-.004-1.79-.438-3.594-1.591-5.004a7.075 7.075 0 0 0-3.944-2.446 8.175 8.175 0 0 0-1.722-.195.79.79 0 0 1-.262-.033c-.316-.124-.323-.614.02-.731a.676.676 0 0 1 .209-.022zM11.823 13.807c.752 2.339 2.492 4.269 4.902 4.952a.8.8 0 0 0 .235.033c.222-.008.465-.072.639-.217.044-.037.107-.108.19-.215l.502-.645c.251-.322.716-.449 1.102-.398.184.025.361.085.532.18.915.513 1.676 1.103 2.554 1.821.203.166.326.273.369.322.317.361.307.856.099 1.284a3.966 3.966 0 0 1-.541.802c-.261.311-.58.623-.891.857a2.449 2.449 0 0 1-.876.419 1.1 1.1 0 0 1-.316.035c-.369-.012-.722-.125-1.064-.257-.903-.351-1.778-.8-2.632-1.255a20.314 20.314 0 0 1-3.51-2.381c-.439-.369-.846-.808-1.255-1.231a14.373 14.373 0 0 1-1.252-1.481c-1.001-1.358-1.839-2.87-2.536-4.375-.214-.462-.442-1.023-.543-1.547a1.578 1.578 0 0 1 .067-.857c.091-.246.218-.467.382-.662.411-.491.89-.917 1.439-1.277.158-.104.296-.175.414-.213.44-.141.888-.044 1.194.323.401.48.941 1.135 1.328 1.728l.559.859c.122.189.201.331.237.427.155.418.1.923-.178 1.286a1.335 1.335 0 0 1-.248.233l-.646.504c-.209.164-.295.532-.29.792.001.057.019.1.036.154z"/>
      <path d="M20.508 12.329c-.475-1.304-1.451-2.232-2.775-2.687a5.942 5.942 0 0 0-1.459-.291.689.689 0 0 1-.2-.039c-.404-.184-.239-.784.208-.748.38.031.755.089 1.126.174 2.594.598 4.213 2.736 4.16 5.381a.57.57 0 0 1-.043.234c-.147.307-.593.285-.715-.031a.621.621 0 0 1-.027-.219c.006-.601-.069-1.204-.276-1.773z"/>
      <path d="M16.868 10.688c.812.046 1.605.353 2.096 1.016.358.484.519 1.111.559 1.712a.661.661 0 0 1-.019.244c-.117.332-.59.344-.728.022a.67.67 0 0 1-.035-.197 3.048 3.048 0 0 0-.206-.948c-.307-.747-.976-1.009-1.73-1.065a.597.597 0 0 1-.205-.043c-.307-.146-.297-.597.026-.717a.607.607 0 0 1 .242-.023z"/>
    </symbol>
    <symbol id="icon-tiktok" viewBox="0 0 32 32">
      <path d="M25.466 7.515a6.829 6.829 0 0 1-.573-.333 8.026 8.026 0 0 1-1.471-1.25c-1.097-1.255-1.507-2.529-1.658-3.42h.006c-.126-.74-.074-1.219-.066-1.219h-4.996v19.32c0 .259 0 .516-.011.769 0 .032-.003.061-.005.095 0 .014 0 .028-.003.043v.011a4.249 4.249 0 0 1-2.135 3.367 4.171 4.171 0 0 1-2.067.545c-2.328 0-4.215-1.898-4.215-4.242s1.887-4.242 4.215-4.242c.441 0 .879.069 1.298.205l.006-5.087a9.288 9.288 0 0 0-7.152 2.092A9.8 9.8 0 0 0 4.5 16.807c-.211.364-1.007 1.825-1.103 4.196-.061 1.346.344 2.741.536 3.317v.012c.121.339.591 1.497 1.356 2.474a10.156 10.156 0 0 0 2.164 2.042v-.012l.012.012c2.419 1.644 5.101 1.536 5.101 1.536.464-.019 2.019 0 3.785-.837 1.959-.928 3.074-2.31 3.074-2.31a9.599 9.599 0 0 0 1.675-2.784c.452-1.188.603-2.614.603-3.184v-10.25c.061.036.868.57.868.57s1.163.745 2.978 1.231c1.302.345 3.056.418 3.056.418v-4.96c-.614.067-1.862-.127-3.14-.764z"/>
    </symbol>
    <symbol id="icon-telegram" viewBox="0 0 32 32">
      <path d="m9.638 19.553 2.702-1.174-.758.76a1.292 1.292 0 0 0-.379.913v5.058c0 1.158 1.399 1.72 2.206.913l2.713-2.713 5.911 2.956a1.292 1.292 0 0 0 1.849-.925l3.373-18.546c.177-.998-.805-1.804-1.744-1.436L3.595 13.937c-.982.383-1.113 1.727-.224 2.294l5.057 3.226c.362.231.819.267 1.21.095zm14.66-10.938-2.649 14.572-5.205-2.601a1.289 1.289 0 0 0-1.491.243l-1.165 1.165v-1.401l5.182-5.182c1.005-1.005-.126-2.663-1.429-2.099l-8.302 3.602-2.334-1.489 17.392-6.809z"/>
    </symbol>
    <symbol id="icon-arrow-next" viewBox="0 0 32 32">
      <path d="m19.414 27.414 10-10a2 2 0 0 0 0-2.828l-10-10a2 2 0 1 0-2.828 2.828L23.172 14H4a2 2 0 1 0 0 4h19.172l-6.586 6.586c-.39.39-.586.902-.586 1.414s.195 1.024.586 1.414a2 2 0 0 0 2.828 0z"/>
    </symbol>
    <symbol id="icon-arrow-prev" viewBox="0 0 32 32">
      <path d="m12.586 27.414-10-10a2 2 0 0 1 0-2.828l10-10a2 2 0 1 1 2.828 2.828L8.828 14H28a2 2 0 1 1 0 4H8.828l6.586 6.586c.39.39.586.902.586 1.414s-.195 1.024-.586 1.414a2 2 0 0 1-2.828 0z"/>
    </symbol>
    <symbol id="icon-circle-up" viewBox="0 0 32 32">
      <path d="M0 16c0 8.837 7.163 16 16 16s16-7.163 16-16S24.837 0 16 0 0 7.163 0 16zm29 0c0 7.18-5.82 13-13 13S3 23.18 3 16 8.82 3 16 3s13 5.82 13 13z"/>
      <path d="m22.086 20.914 2.829-2.829-8.914-8.914-8.914 8.914 2.828 2.828 6.086-6.086z"/>
    </symbol>
    <symbol id="icon-check" viewBox="0 0 31 32">
      <path d="m12.8 20.431-4.215-4.215-1.81 1.81 6.025 6.025 12.425-12.425-1.81-1.81L12.8 20.431z"/>
    </symbol>
    <symbol id="icon-close" viewBox="0 0 32 32">
      <path d="M16 0C7.163 0 0 7.163 0 16s7.163 16 16 16 16-7.163 16-16S24.837 0 16 0zm0 29C8.82 29 3 23.18 3 16S8.82 3 16 3s13 5.82 13 13-5.82 13-13 13z"/>
      <path d="m21 8-5 5-5-5-3 3 5 5-5 5 3 3 5-5 5 5 3-3-5-5 5-5z"/>
    </symbol>
  </defs>
</svg>